<?xml version="1.0" encoding="utf-8"?>
<!-- Generator: Adobe Illustrator 23.0.0, SVG Export Plug-In . SVG Version: 6.00 Build 0)  -->
<svg version="1.1" id="Layer_1" xmlns="http://www.w3.org/2000/svg" xmlns:xlink="http://www.w3.org/1999/xlink" x="0px" y="0px"
	 viewBox="0 0 114.7 28.4" style="enable-background:new 0 0 114.7 28.4;" xml:space="preserve">
<style type="text/css">
	.st0{fill:#FFFFFF;}
	.st1{fill:none;stroke:#FFFFFF;}
</style>
<g>
	<path class="st0" d="M2.8,22.3c-0.3,0-0.6,0-0.8-0.1v-0.8c0.3,0.1,0.5,0.1,0.8,0.1c0.4,0,0.6-0.1,0.8-0.3c0.2-0.2,0.3-0.5,0.3-0.9
		v-7.7h0.9v7.6c0,0.7-0.2,1.2-0.5,1.6C4,22.1,3.5,22.3,2.8,22.3z"/>
	<path class="st0" d="M13.2,12.5v5c0,0.9-0.3,1.6-0.8,2.1c-0.6,0.5-1.3,0.8-2.3,0.8c-1,0-1.7-0.3-2.3-0.8c-0.5-0.5-0.8-1.2-0.8-2.1
		v-5h0.9v5c0,0.6,0.2,1.1,0.6,1.5s0.9,0.5,1.6,0.5c0.7,0,1.2-0.2,1.6-0.5c0.4-0.3,0.6-0.8,0.6-1.5v-5H13.2z"/>
	<path class="st0" d="M15.3,20.2v-7.7h0.9v6.9h3.6v0.8H15.3z"/>
	<path class="st0" d="M23.3,16.4l2.2-3.9h1l-2.7,4.7v3h-1v-2.9l-2.7-4.8h1L23.3,16.4z"/>
</g>
<g>
	<path class="st0" d="M55.6,21.2c-0.5,1.7-0.9,3.4-1.4,5.2H39.3v-0.9c2.2-2.2,4.5-4.5,6.4-6.8c2.5-3,5-6.2,5-9.7
		c0-3.4-1.8-5.3-4.7-5.3c-2.7,0-4.4,2.2-5.5,3.7l-0.9-0.8L42,3.4c1.2-1.3,3.1-2.4,5.4-2.4c3.5,0,6.7,2.6,6.7,6.8
		c0,3.5-1.6,5.8-5.3,9.8l-5.6,6h7.4c2.2,0,2.7-0.2,3.9-2.7L55.6,21.2z"/>
	<path class="st0" d="M75.4,2c-3.8,8.1-7.5,16.3-11.3,24.5l-3,0.4l-0.3-0.4c4.2-6.8,8.7-15.1,11.9-22h-8.6c-2.6,0-2.9,0.4-3.8,3
		h-1.2c0.4-2.2,0.6-4.2,0.7-5.9h15.3L75.4,2z"/>
</g>
<g>
	<path class="st0" d="M92.8,20.6h-5.3v-0.8l2.1-2c0.7-0.6,1.1-1.1,1.3-1.3c0.2-0.3,0.4-0.5,0.5-0.8c0.1-0.3,0.2-0.5,0.2-0.8
		c0-0.4-0.1-0.7-0.4-1c-0.3-0.2-0.6-0.4-1.1-0.4c-0.3,0-0.7,0.1-1,0.2c-0.3,0.1-0.6,0.3-1,0.6l-0.5-0.6c0.8-0.6,1.6-0.9,2.4-0.9
		c0.8,0,1.4,0.2,1.8,0.6c0.4,0.4,0.7,0.9,0.7,1.5c0,0.5-0.1,1-0.4,1.5c-0.3,0.5-0.8,1.1-1.6,1.8l-1.8,1.7v0h4.2V20.6z"/>
	<path class="st0" d="M99.4,16.8c0,1.3-0.2,2.3-0.7,3s-1.1,1-2,1c-0.9,0-1.5-0.3-2-1c-0.5-0.7-0.7-1.7-0.7-3c0-1.3,0.2-2.3,0.7-3
		c0.4-0.7,1.1-1,2-1c0.9,0,1.6,0.3,2,1C99.2,14.5,99.4,15.5,99.4,16.8z M95,16.8c0,1.1,0.1,1.9,0.4,2.4c0.3,0.5,0.7,0.8,1.3,0.8
		c0.6,0,1.1-0.3,1.3-0.8s0.4-1.3,0.4-2.4s-0.1-1.9-0.4-2.4c-0.3-0.5-0.7-0.8-1.3-0.8c-0.6,0-1.1,0.3-1.3,0.8
		C95.1,14.8,95,15.7,95,16.8z"/>
	<path class="st0" d="M104,20.6h-0.9v-5.5c0-0.5,0-0.9,0-1.3c-0.1,0.1-0.2,0.2-0.3,0.2c-0.1,0.1-0.5,0.4-1.3,1l-0.5-0.6l2.2-1.6h0.8
		V20.6z"/>
	<path class="st0" d="M112.4,16.2c0,3-1.2,4.5-3.7,4.5c-0.4,0-0.8,0-1-0.1v-0.8c0.3,0.1,0.6,0.1,1,0.1c0.9,0,1.6-0.3,2-0.8
		c0.5-0.5,0.7-1.3,0.7-2.4h-0.1c-0.2,0.3-0.5,0.5-0.8,0.7c-0.3,0.2-0.7,0.2-1.1,0.2c-0.7,0-1.3-0.2-1.7-0.6c-0.4-0.4-0.6-1-0.6-1.7
		c0-0.8,0.2-1.4,0.7-1.9c0.5-0.5,1.1-0.7,1.9-0.7c0.6,0,1,0.1,1.5,0.4s0.7,0.7,1,1.2C112.3,14.9,112.4,15.5,112.4,16.2z M109.7,13.6
		c-0.5,0-0.9,0.2-1.2,0.5c-0.3,0.3-0.4,0.8-0.4,1.4c0,0.5,0.1,0.9,0.4,1.2c0.3,0.3,0.7,0.4,1.2,0.4c0.3,0,0.6-0.1,0.9-0.2
		c0.3-0.1,0.5-0.3,0.7-0.5c0.2-0.2,0.2-0.5,0.2-0.7c0-0.4-0.1-0.7-0.2-1c-0.2-0.3-0.4-0.6-0.6-0.7C110.3,13.7,110,13.6,109.7,13.6z"
		/>
</g>
<line class="st1" x1="1.7" y1="8.2" x2="27.7" y2="8.2"/>
<line class="st1" x1="86.7" y1="8.2" x2="112.8" y2="8.2"/>
<line class="st1" x1="1.7" y1="24.2" x2="27.7" y2="24.2"/>
<line class="st1" x1="86.7" y1="24.2" x2="112.8" y2="24.2"/>
</svg>
