<?xml version="1.0" encoding="utf-8"?>
<!-- Generator: Adobe Illustrator 23.0.0, SVG Export Plug-In . SVG Version: 6.00 Build 0)  -->
<svg version="1.1" id="Layer_1" xmlns="http://www.w3.org/2000/svg" xmlns:xlink="http://www.w3.org/1999/xlink" x="0px" y="0px"
	 viewBox="0 0 118 98" style="enable-background:new 0 0 118 98;" xml:space="preserve">
<style type="text/css">
	.st0{fill:none;stroke:#FFFFFF;stroke-width:2;stroke-miterlimit:10;}
	.st1{fill:none;stroke:#FFFFFF;stroke-width:2;stroke-linecap:round;stroke-miterlimit:10;}
	.st2{fill:#FFFFFF;}
</style>
<g id="Layer_3">
</g>
<g>
	<path class="st0" d="M57.5,25.1c0,0-9.2-2.4-8.5,9.1s8.5,10.6,8.5,10.6s7.8,0.9,8.5-10.6C66.7,22.7,57.5,25.1,57.5,25.1z"/>
	<path class="st0" d="M63.3,20.1c-2.2-2-5.8-2.1-5.8-2.1s-3.5,0.1-5.8,2.1c-2.2,2,0,5.9,0,5.9c2.6-1.9,5.8-0.9,5.8-0.9
		s3.1-1,5.8,0.9C63.3,26,65.5,22.1,63.3,20.1z"/>
	<path class="st0" d="M51.6,42.3"/>
	<path class="st0" d="M49,32.7"/>
	<path class="st0" d="M49,32.7c0,0-17.7-0.7-27.7-4.2S7.1,28.8,6.5,30.9c0,0,1.7,9.4,12.5,9.8c0,0-1.9,3,6.9,6s25.7-4.5,25.7-4.5"/>
	<path class="st0" d="M66.3,32.7c0,0,17.7-0.7,27.7-4.2s14.1,0.3,14.7,2.4c0,0-1.7,9.4-12.5,9.8c0,0,1.9,3-6.9,6s-25.7-4.5-25.7-4.5
		"/>
	<path class="st1" d="M59.5,18.3v-0.4c0-0.6,0.2-1.2,0.7-1.5l5.9-5.3"/>
	<path class="st1" d="M55.5,18v-0.4c0-0.6-0.2-1.2-0.7-1.5l-5.9-5.3"/>
	<path class="st1" d="M49,45.5c0,0-3.6-3.9-6.6,2.8c-3.2,7-3.7,12-3.7,12s0,2.2,1.2,2.2c0,0-2.7,6.3-1.5,9c0.1,0.3,0.5,0.5,0.8,0.5
		H40c0,0-1.8,6.9-3.1,6.9"/>
	<path class="st1" d="M48.2,47c0,0-3-1.8-3.4,2.2s-0.2,11-1,12.4c0,0,1.1,10.8-3.8,10.5"/>
	<path class="st2" d="M61.6,19c0,0,1.3-2.2,3.2-0.7c0.9,0.7,1.3,1.8,1.3,2.9c0,1.3-0.3,3-1.9,3.2"/>
	<path class="st2" d="M53.5,19c0,0-1.3-2.2-3.2-0.7C49.4,19,49,20.1,49,21.2c0,1.3,0.3,3,1.9,3.2"/>
	<path class="st1" d="M50.1,27.7l-0.8-0.2c-0.7-0.2-1.2-0.8-1.3-1.5c-0.3-1.4-0.9-3.7-2.3-5.3c-0.9-1-1.3-2.3-1.3-3.6
		c0-1.5-0.5-3.4-2.6-4c0,0-1.3-4.5-2.4-4.9"/>
	<path class="st0" d="M49.4,29.4l-2.2-1.7c0,0-4.1-1.2-4.7-8c0,0-3-4.4-0.7-6.8"/>
	<path class="st1" d="M65,27.7l0.8-0.3c0.7-0.2,1.2-0.8,1.3-1.5c0.3-1.4,0.9-3.7,2.3-5.3c0.9-1,1.3-2.3,1.3-3.6c0-1.5,0.5-3.4,2.6-4
		c0,0,1.3-4.5,2.4-4.9"/>
	<path class="st0" d="M65.7,29.4l2.2-1.7c0,0,4.1-1.2,4.7-8c0,0,3-4.4,0.7-6.8"/>
	<path class="st1" d="M42.4,32.3c0,0-0.7-2.2-2.6-3.3c-0.3-0.2-0.6-0.5-0.7-0.9c-0.5-1.3-1.8-4.1-4.4-4.5c0,0-2.7-3-2.5-4.4"/>
	<path class="st1" d="M34.7,23.5c0,0-1.6,3.9,2.4,5.6c0.4,0.2,0.6,0.5,0.7,0.9c0,0.7,0.2,1.7,0.9,1.7"/>
	<path class="st1" d="M72.1,32.3c0,0,0.7-2.2,2.6-3.3c0.3-0.2,0.6-0.5,0.7-0.9c0.5-1.3,1.8-4.1,4.4-4.5c0,0,2.7-3,2.5-4.4"/>
	<path class="st1" d="M79.8,23.5c0,0,1.6,3.9-2.4,5.6c-0.4,0.2-0.6,0.5-0.7,0.9c0,0.7-0.2,1.7-0.9,1.7"/>
	<path class="st1" d="M66,45.5c0,0,3.6-3.9,6.6,2.8c3.2,7,3.7,12,3.7,12s0,2.2-1.2,2.2c0,0,2.7,6.3,1.5,9c-0.1,0.3-0.5,0.5-0.8,0.5
		H75c0,0,1.8,6.9,3.1,6.9"/>
	<path class="st1" d="M66.8,47c0,0,3-1.8,3.4,2.2s0.2,11,1,12.4c0,0-1.1,10.8,3.8,10.5"/>
	<path class="st0" d="M67.8,59.1"/>
	<g>
		<path class="st0" d="M67.8,51.1c0,0,1.4-8.4-10.3-5.6c-11.7-2.7-10.3,5.6-10.3,5.6S56.7,55.4,67.8,51.1z"/>
		<path class="st0" d="M49.7,76c0.9,3.8,1.9,6.6,2.9,8.6c2.6,0.4,5.9,0.6,9.7,0c1-2,2-4.8,2.9-8.7C58.7,77.8,52.9,76.9,49.7,76z"/>
		<path class="st0" d="M52.7,84.6c2.5,4.9,4.8,5.3,4.8,5.3s2.4-0.4,4.8-5.3C58.6,85.2,55.3,85,52.7,84.6z"/>
		<path class="st0" d="M47.2,51.1c0.1,2.9,0.2,5.6,0.3,8.1c1.7,0.7,10.1,3.6,19.9,0c0.2-2.5,0.3-5.2,0.3-8.1
			C56.7,55.4,47.2,51.1,47.2,51.1z"/>
		<path class="st0" d="M48.3,67.5c0.4,3.3,0.9,6.1,1.5,8.4c3.1,0.9,8.9,1.8,15.5,0c0.6-2.4,1-5.2,1.5-8.5
			C58.3,70.4,50.9,68.5,48.3,67.5z"/>
		<path class="st0" d="M47.5,59.3c0.2,3,0.4,5.8,0.8,8.3c2.7,0.9,10,2.8,18.4,0c0.3-2.5,0.6-5.2,0.7-8.3
			C57.7,62.9,49.2,59.9,47.5,59.3z"/>
	</g>
</g>
</svg>
